<svg width="200" height="229" viewBox="0 0 200 229" fill="none" xmlns="http://www.w3.org/2000/svg">
<path d="M174.823 44.7969C174.666 43.6563 173.667 43.0251 172.841 42.9555C166.752 42.498 160.663 42.0441 154.573 41.5938C154.573 41.5938 142.459 29.5665 141.129 28.2352C139.798 26.9047 137.2 27.3094 136.191 27.6063C136.043 27.65 133.545 28.4211 129.412 29.7C125.365 18.0547 118.223 7.35317 105.658 7.35317C105.311 7.35317 104.954 7.36724 104.597 7.38755C101.023 2.66177 96.5969 0.608643 92.7734 0.608643C63.5039 0.608643 49.5203 37.1985 45.1359 55.7922C33.7625 59.3165 25.6828 61.8219 24.6508 62.1461C18.3023 64.1375 18.1015 64.3376 17.2679 70.3196C16.6406 74.8485 0.0296631 203.309 0.0296631 203.309L129.466 227.56L199.598 212.388C199.598 212.388 174.978 45.9375 174.823 44.7969ZM122.258 31.9125L111.305 35.3024C111.309 34.5305 111.313 33.7711 111.313 32.9407C111.313 25.7032 110.309 19.8758 108.697 15.2563C115.171 16.0688 119.483 23.4352 122.258 31.9125ZM100.666 16.6915C102.466 21.2016 103.636 27.6743 103.636 36.4086C103.636 36.8555 103.632 37.2641 103.628 37.6774C96.5055 39.8836 88.7656 42.279 81.0086 44.6821C85.364 27.8727 93.5281 19.754 100.666 16.6915ZM91.9695 8.45942C93.2328 8.45942 94.5054 8.88833 95.7234 9.72661C86.3429 14.1407 76.2883 25.2579 72.0422 47.4586L54.1625 52.9961C59.1359 36.0625 70.9461 8.45942 91.9695 8.45942Z" fill="#95BF46"/>
<path d="M172.841 42.9555C166.752 42.4979 160.663 42.044 154.573 41.5938C154.573 41.5938 142.459 29.5664 141.129 28.2352C140.631 27.7399 139.96 27.486 139.259 27.3766L129.472 227.559L199.598 212.388C199.598 212.388 174.978 45.9375 174.823 44.7969C174.666 43.6563 173.667 43.025 172.841 42.9555Z" fill="#5E8E3E"/>
<path d="M105.658 81.7071L97.0102 107.43C97.0102 107.43 89.4336 103.387 80.1461 103.387C66.5305 103.387 65.8453 111.931 65.8453 114.084C65.8453 125.833 96.4703 130.334 96.4703 157.853C96.4703 179.504 82.7383 193.445 64.2227 193.445C42.0039 193.445 30.6414 179.617 30.6414 179.617L36.5906 159.961C36.5906 159.961 48.2703 169.988 58.1258 169.988C64.5656 169.988 67.1852 164.918 67.1852 161.213C67.1852 145.888 42.0602 145.205 42.0602 120.023C42.0602 98.8281 57.2727 78.318 87.9805 78.318C99.8125 78.318 105.658 81.7071 105.658 81.7071Z" fill="white"/>
</svg>
